<?xml version="1.0" standalone="no"?>
<!DOCTYPE svg PUBLIC "-//W3C//DTD SVG 20010904//EN"
 "http://www.w3.org/TR/2001/REC-SVG-20010904/DTD/svg10.dtd">
<svg version="1.0" xmlns="http://www.w3.org/2000/svg"
 width="777.000000pt" height="255.000000pt" viewBox="0 0 777.000000 255.000000"
 preserveAspectRatio="xMidYMid meet">

<g transform="translate(0.000000,255.000000) scale(0.100000,-0.100000)"
fill="#000000" stroke="none">
<path d="M4355 2306 c-149 -29 -282 -82 -392 -157 -69 -47 -188 -164 -238
-234 -86 -120 -154 -282 -175 -415 -23 -151 -6 -380 38 -511 110 -317 340
-537 667 -635 82 -25 105 -27 255 -28 142 0 177 3 250 22 175 48 317 126 446
245 58 54 66 66 60 87 -7 26 -212 202 -241 208 -10 2 -38 -17 -67 -47 -122
-124 -254 -181 -425 -181 -154 0 -261 35 -380 125 -241 181 -329 513 -212 797
177 429 703 540 1019 214 25 -25 52 -46 61 -46 9 0 69 44 133 97 82 70 116
104 116 120 0 25 -103 124 -193 185 -81 55 -208 113 -302 138 -103 28 -318 36
-420 16z"/>
<path d="M6370 2310 c-402 -56 -718 -334 -827 -726 -25 -90 -28 -114 -28 -264
1 -148 3 -175 28 -264 99 -358 352 -611 707 -708 124 -33 356 -33 485 1 107
28 231 84 323 145 70 46 190 162 241 232 125 170 194 386 193 604 -1 268 -100
502 -294 698 -124 125 -288 218 -459 261 -99 25 -272 34 -369 21z m324 -364
c172 -65 297 -180 378 -349 85 -175 77 -415 -19 -600 -53 -104 -172 -220 -281
-276 -241 -124 -507 -77 -708 123 -90 90 -140 171 -176 286 -33 106 -33 274 1
375 78 233 252 408 457 460 93 23 261 14 348 -19z"/>
<path d="M407 2274 c-4 -4 -7 -431 -7 -949 0 -718 3 -944 12 -953 18 -18 853
-17 888 1 13 7 51 46 82 87 175 226 171 219 158 235 -11 13 -69 15 -401 15
l-389 0 -2 783 -3 782 -166 3 c-91 1 -168 -1 -172 -4z"/>
<path d="M1771 2266 c-9 -11 -11 -173 -9 -668 4 -646 4 -654 27 -728 74 -245
262 -439 500 -518 65 -22 95 -26 206 -26 110 -1 142 3 205 22 196 62 346 190
440 377 77 152 74 113 77 850 2 363 1 670 -2 682 -5 23 -8 23 -164 23 -119 0
-161 -3 -169 -13 -8 -9 -12 -214 -14 -663 l-3 -649 -32 -66 c-39 -80 -111
-150 -191 -187 -49 -23 -70 -27 -147 -27 -68 0 -102 5 -135 19 -105 46 -176
118 -222 226 l-23 55 -5 650 -5 650 -161 3 c-130 2 -163 0 -173 -12z"/>
</g>
</svg>
